# xmcd CD database file generated by Grip 3.2.0
# 
# Track frame offsets:
#       150
#       19738
#       37055
#       50612
#       65504
#       80538
#       96841
#       114197
#       135878
#       152911
#       168485
#       183752
#       205285
#       219219
#       234823
#       251023
#       264901
#       284291
#       299475
#       311560
# 
# Disc length: 4385 seconds
# 
# Revision: 1
# Processed by: cddbd v1.5.1PL2 Copyright (c) Steve Scherf et al.
# Submitted via: Grip 3.2.0
# 
DISCID=14111f14
DTITLE=Kenny Rogers - Classic Love Songs
DYEAR=1900
DGENRE=Country
TTITLE0=She Believes In Me
TTITLE1=Lady
TTITLE2=I Will Always Love You
TTITLE3=Crazy
TTITLE4=Misty
TTITLE5=The Wind Beneath My Wings
TTITLE6=Endless LOve
TTITLE7=Have I Told You Lately That I Love You
TTITLE8=When A Man Loves A Woman
TTITLE9=When I Fall In Love
TTITLE10=Unforgettable
TTITLE11=Always And Forever
TTITLE12=You Send Me
TTITLE13=Unchained Melody
TTITLE14=Evergreen
TTITLE15=Love Me Tender
TTITLE16=I Only Have Eyes For You
TTITLE17=I Can't Help Falling In Love With You
TTITLE18=It Had To Be You
TTITLE19=I Swear
EXTD=
EXTT0=
EXTT1=
EXTT2=
EXTT3=
EXTT4=
EXTT5=
EXTT6=
EXTT7=
EXTT8=
EXTT9=
EXTT10=
EXTT11=
EXTT12=
EXTT13=
EXTT14=
EXTT15=
EXTT16=
EXTT17=
EXTT18=
EXTT19=
PLAYORDER=
